<svg width="326" height="357" viewBox="0 0 326 357" fill="none" xmlns="http://www.w3.org/2000/svg">
<path fill-rule="evenodd" clip-rule="evenodd" d="M325.189 65.5449L323.996 49.002L307.932 53.1282C297.408 55.8313 286.358 57.2734 274.948 57.2734C236.71 57.2734 200.472 39.3452 174.801 11.2408L164.534 0L154.314 11.2835C128.791 39.4599 91.3606 57.2734 51.3873 57.2734C39.7083 57.2734 28.4069 55.7548 17.662 52.9128L1.01978 48.5109L0.28586 65.7098C0.0959051 70.1613 0 74.6361 0 79.1324C0 197.593 66.5063 300.533 164.248 353.011L171.281 356.786L178.073 352.593C266.817 297.806 326 199.866 326 88.123C326 80.5326 325.727 73.0034 325.189 65.5449ZM51.3873 71.1212C43.3784 71.1212 35.5213 70.4736 27.8661 69.2282C23.2059 68.47 18.6204 67.4903 14.1211 66.3002C13.9395 70.555 13.8478 74.8331 13.8478 79.1324C13.8478 79.5937 13.8488 80.0547 13.851 80.5155C14.3661 193.073 77.733 290.843 170.798 340.81C255.644 288.43 312.152 194.849 312.152 88.123C312.152 85.6201 312.121 83.1244 312.059 80.6363C311.942 75.9095 311.714 71.2101 311.377 66.5406C306.895 67.6918 302.329 68.6355 297.691 69.3609C290.281 70.5196 282.685 71.1212 274.948 71.1212C237.108 71.1212 201.455 55.3928 174.358 30.4069C170.959 27.2727 167.694 23.9928 164.577 20.58C161.477 24.0021 158.217 27.2856 154.811 30.4193C127.427 55.6119 90.5818 71.1212 51.3873 71.1212ZM258.781 87.5109C269.61 87.5109 280.117 86.1362 290.136 83.5521C290.579 89.7121 290.804 95.9323 290.804 102.205C290.804 194.445 242.165 275.325 169.135 320.595C88.7028 277.234 34.0425 192.218 34.0425 94.4348C34.0425 90.719 34.1214 87.0216 34.2777 83.3443C44.5122 86.0624 55.2639 87.5109 66.354 87.5109C104.287 87.5109 139.663 70.5645 163.78 43.8296C187.853 70.293 222.125 87.5109 258.781 87.5109ZM166.08 110.014C149.402 110.014 135.881 123.534 135.881 140.212V161.236H130.53C125.041 161.236 120.591 165.686 120.591 171.175V226.22C120.591 231.709 125.041 236.158 130.53 236.158H202.394C207.883 236.158 212.333 231.709 212.333 226.22V171.175C212.333 165.686 207.883 161.236 202.394 161.236H196.278V140.212C196.278 123.534 182.758 110.014 166.08 110.014ZM187.868 141.359V161.236H145.056V141.359C145.056 129.536 154.64 119.952 166.462 119.952C178.284 119.952 187.868 129.536 187.868 141.359ZM165.316 182.706C153.695 187.294 157.67 196.085 161.111 199.908L157.288 221.697H175.254L171.432 199.908C172.706 200.163 175.254 198.761 175.254 191.116C175.254 183.471 168.628 182.324 165.316 182.706Z" fill="url(#paint0_linear_37_84)"/>
<defs>
<linearGradient id="paint0_linear_37_84" x1="192.636" y1="356.561" x2="62.5121" y2="-60.703" gradientUnits="userSpaceOnUse">
<stop stop-color="#2977F5"/>
<stop offset="0.788265" stop-color="#12D0FA"/>
</linearGradient>
</defs>
</svg>
