<svg width="317" height="160" viewBox="0 0 317 160" fill="none" xmlns="http://www.w3.org/2000/svg">
<path fill-rule="evenodd" clip-rule="evenodd" d="M9.38563 80C43.9961 124.168 97.8095 152.527 158.248 152.527C218.686 152.527 272.5 124.168 307.11 80C272.5 35.8325 218.686 7.47253 158.248 7.47253C97.8095 7.47253 43.9961 35.8325 9.38563 80ZM316.496 80C280.719 31.4771 223.16 0 158.248 0C93.3364 0 35.7766 31.4771 0 80C35.7766 128.523 93.3364 160 158.248 160C223.16 160 280.719 128.523 316.496 80Z" fill="url(#paint0_linear_37_22)"/>
<path fill-rule="evenodd" clip-rule="evenodd" d="M158.022 143.736C193.344 143.736 221.978 115.102 221.978 79.7802C221.978 44.4583 193.344 15.8242 158.022 15.8242C122.7 15.8242 94.0659 44.4583 94.0659 79.7802C94.0659 115.102 122.7 143.736 158.022 143.736ZM158.022 151.209C197.471 151.209 229.451 119.229 229.451 79.7802C229.451 40.3313 197.471 8.35165 158.022 8.35165C118.573 8.35165 86.5934 40.3313 86.5934 79.7802C86.5934 119.229 118.573 151.209 158.022 151.209Z" fill="url(#paint1_linear_37_22)"/>
<path d="M185.538 62.0081C184.048 68.0483 178.594 72.5275 172.094 72.5275C164.447 72.5275 158.248 66.3283 158.248 58.6813C158.248 54.1195 160.454 50.0729 163.858 47.5503C161.966 47.2104 160.018 47.033 158.028 47.033C139.942 47.033 125.281 61.6944 125.281 79.7802C125.281 97.866 139.942 112.527 158.028 112.527C176.114 112.527 190.776 97.866 190.776 79.7802C190.776 73.2288 188.852 67.1267 185.538 62.0081Z" fill="url(#paint2_linear_37_22)"/>
<defs>
<linearGradient id="paint0_linear_37_22" x1="187.02" y1="159.899" x2="158.046" y2="-41.2461" gradientUnits="userSpaceOnUse">
<stop stop-color="#2977F5"/>
<stop offset="0.788265" stop-color="#12D0FA"/>
</linearGradient>
<linearGradient id="paint1_linear_37_22" x1="187.02" y1="159.899" x2="158.046" y2="-41.2461" gradientUnits="userSpaceOnUse">
<stop stop-color="#2977F5"/>
<stop offset="0.788265" stop-color="#12D0FA"/>
</linearGradient>
<linearGradient id="paint2_linear_37_22" x1="187.02" y1="159.899" x2="158.046" y2="-41.2461" gradientUnits="userSpaceOnUse">
<stop stop-color="#2977F5"/>
<stop offset="0.788265" stop-color="#12D0FA"/>
</linearGradient>
</defs>
</svg>
