<svg width="277" height="251" viewBox="0 0 277 251" fill="none" xmlns="http://www.w3.org/2000/svg">
<path d="M154.772 55.7812C153.461 62.7728 147.366 77.608 133.47 81.0164M134.781 147.873C142.319 148.092 161.392 146.693 177.386 139.352M122.327 54.1426L131.831 17.1092L167.881 4L189.184 34.1511L211.142 23.336L189.184 45.2939L163.293 34.1511L175.747 67.5795L161.982 88.5542L184.923 135.747H192.789V153.117L198.033 158.688V162.949L182.629 177.369L150.184 188.512L186.562 183.268L205.898 171.797L232.444 188.512L271.772 199.327L242.276 228.167L229.167 222.923L231.133 232.1L217.696 222.923L224.251 237.016C208.738 246.301 163.818 258.318 108.235 232.1C92.7222 224.671 51.0132 213.157 8.27729 226.528L5 223.251L65.3022 184.251H90.8651L73.1677 178.352V171.47C74.6971 169.722 77.1004 163.014 74.4786 150.167L78.7391 146.235L101.025 150.167L122.983 147.873L98.7306 146.235L85.2937 138.041L101.025 64.3022L122.327 54.1426Z" stroke="url(#paint0_linear_37_42)" stroke-width="5.24367"/>
<defs>
<linearGradient id="paint0_linear_37_42" x1="162.638" y1="247.846" x2="86.2251" y2="-45.3507" gradientUnits="userSpaceOnUse">
<stop stop-color="#2977F5"/>
<stop offset="0.788265" stop-color="#12D0FA"/>
</linearGradient>
</defs>
</svg>
